<?xml version="1.0"?>
<svg version="1.1" id="Capa_1" xmlns="http://www.w3.org/2000/svg" xmlns:xlink="http://www.w3.org/1999/xlink" x="0px" y="0px"
	 viewBox="0 0 399.555 399.555" style="enable-background:new 0 0 399.555 399.555;" xml:space="preserve">
<g>
	<polygon style="fill:#933EC5;" points="299.668,252.292 299.691,252.27 199.777,219.777 	"/>
	<polygon style="fill:#933EC5;" points="399.555,154.925 261.512,134.866 199.777,219.777 	"/>
	<polygon style="fill:#00D7DF;" points="299.668,252.292 199.777,219.777 199.777,219.884 323.188,389.746 
		323.248,389.777 	"/>
	<polygon style="fill:#64C37D;" points="199.777,219.884 199.777,219.777 76.342,389.67 99.906,252.287 
		99.888,252.292 76.308,389.777 199.777,324.866 199.777,324.865 	"/>
	<polygon style="fill:#FF9811;" points="99.924,252.185 199.777,219.777 0.127,154.906 0,154.925 99.888,252.292 
		99.906,252.287 	"/>
	<polygon style="fill:#EA348B;" points="199.777,219.777 199.777,9.777 138.061,134.83 138.099,134.825 	"/>
	<polygon style="fill:#F7AAC1;" points="261.512,134.866 199.777,9.777 199.777,219.777 	"/>
	<polygon style="fill:#FFBA44;" points="138.099,134.825 138.061,134.83 0.056,154.883 0.127,154.906 
		199.777,219.777 	"/>
	<polygon style="fill:#91DC5A;" points="99.906,252.287 76.342,389.67 199.777,219.777 99.924,252.185 	"/>
	<polygon style="fill:#99EFF2;" points="199.777,324.865 323.211,389.777 323.188,389.746 199.777,219.884 	"/>
	<polygon style="fill:#7C84E8;" points="299.691,252.27 299.691,252.27 399.555,154.925 199.777,219.777 	"/>
</g>
</svg>
